<svg width="166" height="101" viewBox="0 0 166 101" fill="none" xmlns="http://www.w3.org/2000/svg">
<g filter="url(#filter0_d_4_1049)">
<path d="M13.93 71.27C12.15 71.27 10.57 70.91 9.19 70.19C7.81 69.47 6.72 68.48 5.92 67.22C5.14 65.94 4.75 64.48 4.75 62.84C4.75 61.2 5.14 59.75 5.92 58.49C6.72 57.23 7.81 56.25 9.19 55.55C10.57 54.83 12.15 54.47 13.93 54.47C15.71 54.47 17.29 54.83 18.67 55.55C20.07 56.25 21.16 57.23 21.94 58.49C22.72 59.75 23.11 61.2 23.11 62.84C23.11 64.48 22.72 65.94 21.94 67.22C21.16 68.48 20.07 69.47 18.67 70.19C17.29 70.91 15.71 71.27 13.93 71.27ZM13.93 66.74C14.59 66.74 15.17 66.59 15.67 66.29C16.19 65.99 16.6 65.55 16.9 64.97C17.2 64.37 17.35 63.66 17.35 62.84C17.35 62.02 17.2 61.33 16.9 60.77C16.6 60.19 16.19 59.75 15.67 59.45C15.17 59.15 14.59 59 13.93 59C13.29 59 12.71 59.15 12.19 59.45C11.69 59.75 11.28 60.19 10.96 60.77C10.66 61.33 10.51 62.02 10.51 62.84C10.51 63.66 10.66 64.37 10.96 64.97C11.28 65.55 11.69 65.99 12.19 66.29C12.71 66.59 13.29 66.74 13.93 66.74ZM28.8273 71V58.01L30.0573 59.27H23.5773V54.74H39.7173V59.27H33.2373L34.4973 58.01V71H28.8273ZM74.0866 71.98C70.7266 71.98 67.3433 71.56 63.9366 70.72C60.53 69.88 57.59 68.69 55.1166 67.15L60.0866 56.72C62.0933 58.0267 64.2633 59.03 66.5966 59.73C68.9766 60.43 71.3333 60.78 73.6666 60.78C76 60.78 77.89 60.3367 79.3366 59.45C80.7833 58.5167 81.5066 57.2333 81.5066 55.6C81.5066 54.62 81.2266 53.7567 80.6666 53.01C80.1066 52.2167 79.15 51.6333 77.7966 51.26C76.4433 50.84 74.5066 50.63 71.9866 50.63H58.6866L61.1366 22H92.3566V32.71H66.0366L73.1066 26.62L71.4966 45.94L64.4266 39.85H75.2766C80.13 39.85 84.0266 40.55 86.9666 41.95C89.9066 43.3033 92.0533 45.1467 93.4066 47.48C94.76 49.7667 95.4366 52.3567 95.4366 55.25C95.4366 58.1433 94.6666 60.8733 93.1266 63.44C91.6333 65.96 89.3233 68.0133 86.1966 69.6C83.07 71.1867 79.0333 71.98 74.0866 71.98ZM105.983 71L139.443 22H149.523L116.063 71H105.983ZM110.463 48.53C108.083 48.53 105.936 47.9933 104.023 46.92C102.109 45.8467 100.616 44.3067 99.5426 42.3C98.4692 40.2467 97.9326 37.7967 97.9326 34.95C97.9326 32.1033 98.4692 29.6767 99.5426 27.67C100.616 25.6633 102.109 24.1233 104.023 23.05C105.936 21.93 108.083 21.37 110.463 21.37C112.889 21.37 115.036 21.93 116.903 23.05C118.816 24.1233 120.309 25.6633 121.383 27.67C122.503 29.6767 123.063 32.1033 123.063 34.95C123.063 37.75 122.503 40.1767 121.383 42.23C120.309 44.2833 118.816 45.8467 116.903 46.92C115.036 47.9933 112.889 48.53 110.463 48.53ZM110.533 41.88C111.699 41.88 112.656 41.3433 113.403 40.27C114.196 39.1967 114.593 37.4233 114.593 34.95C114.593 32.4767 114.196 30.7033 113.403 29.63C112.656 28.5567 111.699 28.02 110.533 28.02C109.366 28.02 108.363 28.5567 107.523 29.63C106.729 30.7033 106.333 32.4767 106.333 34.95C106.333 37.4233 106.729 39.1967 107.523 40.27C108.363 41.3433 109.366 41.88 110.533 41.88ZM145.043 71.63C142.616 71.63 140.446 71.0933 138.533 70.02C136.666 68.9467 135.196 67.4067 134.123 65.4C133.049 63.3467 132.513 60.8967 132.513 58.05C132.513 55.2033 133.049 52.7767 134.123 50.77C135.196 48.7633 136.666 47.2233 138.533 46.15C140.446 45.03 142.616 44.47 145.043 44.47C147.469 44.47 149.616 45.03 151.483 46.15C153.396 47.2233 154.889 48.7633 155.963 50.77C157.083 52.7767 157.643 55.2033 157.643 58.05C157.643 60.8967 157.083 63.3467 155.963 65.4C154.889 67.4067 153.396 68.9467 151.483 70.02C149.616 71.0933 147.469 71.63 145.043 71.63ZM145.043 64.98C146.209 64.98 147.189 64.4433 147.983 63.37C148.776 62.2967 149.173 60.5233 149.173 58.05C149.173 55.5767 148.776 53.8033 147.983 52.73C147.189 51.6567 146.209 51.12 145.043 51.12C143.923 51.12 142.943 51.6567 142.103 52.73C141.309 53.8033 140.913 55.5767 140.913 58.05C140.913 60.5233 141.309 62.2967 142.103 63.37C142.943 64.4433 143.923 64.98 145.043 64.98Z" fill="#24173D"/>
<rect x="4" width="158" height="2" fill="white"/>
<rect x="4" y="91" width="158" height="2" fill="white"/>
</g>
<defs>
<filter id="filter0_d_4_1049" x="0" y="0" width="166" height="101" filterUnits="userSpaceOnUse" color-interpolation-filters="sRGB">
<feFlood flood-opacity="0" result="BackgroundImageFix"/>
<feColorMatrix in="SourceAlpha" type="matrix" values="0 0 0 0 0 0 0 0 0 0 0 0 0 0 0 0 0 0 127 0" result="hardAlpha"/>
<feOffset dy="4"/>
<feGaussianBlur stdDeviation="2"/>
<feComposite in2="hardAlpha" operator="out"/>
<feColorMatrix type="matrix" values="0 0 0 0 0 0 0 0 0 0 0 0 0 0 0 0 0 0 0.25 0"/>
<feBlend mode="normal" in2="BackgroundImageFix" result="effect1_dropShadow_4_1049"/>
<feBlend mode="normal" in="SourceGraphic" in2="effect1_dropShadow_4_1049" result="shape"/>
</filter>
</defs>
</svg>
